<svg class="non-scaling-svg" xmlns="http://www.w3.org/2000/svg" viewBox="0 0 420 180" preserveAspectRatio="xMidYMid slice"><defs><style>.non-scaling-svg path, .non-scaling-svg line, .non-scaling-svg circle, .non-scaling-svg ellipse, .non-scaling-svg rect, .non-scaling-svg polygon, .non-scaling-svg polyline{ vector-effect: non-scaling-stroke; stroke-width: 1;}</style><clipPath id="clip-path"><path d="M268.6726,140.2713s-19.4943,8.4848-31.2062-5.1545c-9.0306-10.5167.8449-23.4057.8449-23.4057L266.6671,71.85,255.0732,60.2556l-6.3183,1.8811a142.7175,142.7175,0,0,0-54.7975,30.7467h0a35.94,35.94,0,0,0-11.8848,26.7024h0a40.2131,40.2131,0,0,0,21.042,35.3491h0a55.6525,55.6525,0,0,0,26.5324,6.7319H247.64l-6.3283-8.211C264.8219,150.02,268.6726,140.2713,268.6726,140.2713Z" fill="none"/></clipPath><clipPath id="clip-path-2"><path d="M287.98,38.8684h0a8.3156,8.3156,0,0,0-11.76,0L252.8074,62.2807l13.68,13.68L289.9,52.5483C293.5451,48.9029,293.9817,44.8705,287.98,38.8684Z" fill="none"/></clipPath></defs><g clip-path="url(#clip-path)"><path d="M268.6726,140.2713s-19.4943,8.4847-31.2061-5.1544c-9.0307-10.5168.8449-23.4058.8449-23.4058L266.6671,71.85,255.0732,60.2556l-6.3183,1.8811a142.7177,142.7177,0,0,0-54.7974,30.7467h0a35.94,35.94,0,0,0-11.8848,26.7023v0a40.2135,40.2135,0,0,0,21.0419,35.3492h0a55.6538,55.6538,0,0,0,26.5324,6.7317h11.3638l-11.7906-7.14C263.567,153.1973,268.6726,140.2713,268.6726,140.2713Z" fill="#dadce0"/><path d="M263.2554,68.318l-38.4522,43.56c-5.3284,6.5123-6.54,13.5877-4.5,20.8052,2.3076,8.1648,9.6654,16.8608,29.8665,18.9855l8.9881.8" fill="none" stroke="#3d4043" stroke-miterlimit="10"/><path d="M214.6785,88.5962c-5.59,4.021-10.3416,7.8193-13.1131,10.8211-11.702,12.6745-12.9446,24.2579-4.1084,39.3212" fill="none" stroke="#3d4043" stroke-miterlimit="10"/><path d="M220.0776,84.8142q-1.3176.9013-2.6,1.798" fill="none" stroke="#3d4043" stroke-miterlimit="10"/><path d="M256.8008,61.8634s-17.32,9.9866-33.0038,20.44" fill="none" stroke="#3d4043" stroke-miterlimit="10"/><path d="M227.1129,67.4566s4.1443,21.7634,24.5564,28.7866" fill="none" stroke="#3d4043" stroke-miterlimit="10"/><path d="M197.457,138.7385c-5.37-9.1551-7.0178-17.0247-4.8568-24.6352a38.1291,38.1291,0,0,0,13.64,26.0047Z" fill="#3b4043"/><path d="M260.6139,65.2244,220.1275,98.0528A52.4841,52.4841,0,0,0,209.7663,109.18q-.3971.5822-.7662,1.1566a26.9124,26.9124,0,0,0,8.78,37.34l11.44,6.8507,13.0486,7.9017" fill="none" stroke="#3d4043" stroke-miterlimit="10"/></g><path d="M263.5068,126.0476a14.7863,14.7863,0,0,1-26.0251,9.033h0c-9.0307-10.5168.83-23.37.83-23.37L266.6671,71.85" fill="none" stroke="#3d4043" stroke-miterlimit="10"/><g clip-path="url(#clip-path-2)"><path d="M274.4473,33.2631h0a8.3155,8.3155,0,0,1,8.3155,8.3155v29.96a0,0,0,0,1,0,0H266.1318a0,0,0,0,1,0,0v-29.96A8.3155,8.3155,0,0,1,274.4473,33.2631Z" transform="translate(117.4368 -178.7158) rotate(45)" fill="#5ab96f" stroke="#5ab96f" stroke-miterlimit="10"/><line x1="273.0571" y1="41.5402" x2="285.0625" y2="53.5455" fill="none" stroke="#3d4043" stroke-miterlimit="10"/><line x1="269.629" y1="44.9683" x2="281.6343" y2="56.9737" fill="none" stroke="#3d4043" stroke-miterlimit="10"/><line x1="266.2008" y1="48.3964" x2="278.2062" y2="60.4018" fill="none" stroke="#3d4043" stroke-miterlimit="10"/><line x1="262.7727" y1="51.8246" x2="274.7781" y2="63.83" fill="none" stroke="#3d4043" stroke-miterlimit="10"/><polyline points="254.792 59.806 266.744 71.864 287.98 50.628" fill="none" stroke="#3d4043" stroke-miterlimit="10"/><path d="M280.8886,57.6759c-5.1778,5.0042-13.8964,10.0323-24.62,3.5849,1.61,1.6463,8.8882,8.9348,10.563,10.5153Z" fill="#3d4043"/></g><circle cx="292.9186" cy="33.9294" r="6.9294" fill="none" stroke="#3d4043" stroke-miterlimit="10"/><rect x="151.7123" y="72.8509" width="33.2198" height="22.1465" transform="translate(27.6795 -40.9568) rotate(15.1024)" fill="none" stroke="#3d4043" stroke-miterlimit="10"/><circle cx="176.5755" cy="81.9169" r="4.1588" fill="#fcc934"/><path d="M184.5278,87.6242a12.3969,12.3969,0,0,1-14.2507,8.2969h0l11.1963,3.0215,3.0545-11.3184Z" fill="#3b4043"/><path d="M150.7458,85.3038l12.1-6.9574a2.3621,2.3621,0,0,1,3.2252.87l6.4657,11.2453a2.362,2.362,0,0,0,3.2251.87l9.191-5.2845" fill="none" stroke="#3d4043" stroke-miterlimit="10"/><circle cx="142.7612" cy="146.6434" r="2.3349" fill="#3d4043"/><circle cx="155.5611" cy="139.1358" r="1.1675" fill="#3d4043"/><line x1="123.756" y1="161.6668" x2="292.0441" y2="161.6668" fill="none" stroke="#3d4043" stroke-miterlimit="10"/><rect x="128.3183" y="80.5948" width="32.0094" height="43.705" transform="translate(318.8539 131.833) rotate(154.1883)" fill="#fff" stroke="#3d4043" stroke-miterlimit="10"/><rect x="130.2653" y="88.2084" width="20.5737" height="12.8852" transform="translate(-27.1895 70.6418) rotate(-25.8117)" fill="#669df6"/><line x1="136.6205" y1="110.1477" x2="155.1416" y2="101.1896" fill="none" stroke="#3d4043" stroke-miterlimit="10"/><line x1="138.9468" y1="114.9573" x2="150.208" y2="109.5106" fill="none" stroke="#3d4043" stroke-miterlimit="10"/><path d="M133.8183,117.4859a13.6289,13.6289,0,0,0,17.0888,6.0512v0L139.43,129.0882l-5.6117-11.6023Z" fill="#3b4043"/><rect x="163.5438" y="128.4148" width="50.1966" height="33.4644" transform="translate(84.0809 -68.6764) rotate(26.3652)" fill="#fff" stroke="#3d4043" stroke-miterlimit="10"/><path d="M211.5659,155.4129a18.7324,18.7324,0,0,1-23.5674,8.09v0l15.7006,7.782,7.8668-15.8718Z" fill="#3b4043"/><path d="M218.5918,141.2668l-29.2042,9.848a4.7348,4.7348,0,0,1-5.9994-2.9736l-9.8212-29.1245" fill="none" stroke="#3d4043" stroke-miterlimit="10"/><line x1="158.7238" y1="148.9928" x2="181.1277" y2="141.4379" fill="none" stroke="#3d4043" stroke-miterlimit="10"/><line x1="203.6991" y1="171.2847" x2="196.1442" y2="148.8808" fill="none" stroke="#3d4043" stroke-miterlimit="10"/><path d="M197.4571,138.24a109.2244,109.2244,0,0,1-5.1519-10.4666l-10.2326-8.6861h0c0,2.46-.1068,4.9733.6593,7.2575,5.4782,16.3359,17.7485,17,17.7485,17Z" fill="#dadce0"/></svg>